<svg width="16" height="17" viewBox="0 0 16 17" fill="none" xmlns="http://www.w3.org/2000/svg">
<path d="M15.3618 8.14925C15.3394 8.75002 15.2508 9.3465 15.0978 9.92789C14.956 10.4826 14.7225 11.0097 14.407 11.4874C14.1043 11.9397 13.7042 12.3185 13.2359 12.5959C12.7154 12.8882 12.1253 13.034 11.5284 13.0178C11.097 13.0264 10.6707 12.9221 10.2919 12.7154C9.93735 12.5169 9.6474 12.2205 9.45668 11.8616C9.20521 12.2196 8.86898 12.5097 8.47803 12.706C8.08708 12.9022 7.65359 12.9986 7.2163 12.9865C6.82765 12.9927 6.44386 12.8994 6.10151 12.7153C5.75915 12.5312 5.46962 12.2626 5.2605 11.9349C5.02072 11.562 4.85524 11.1462 4.77315 10.7105C4.67152 10.187 4.65016 9.65104 4.70983 9.1211C4.78141 8.45357 4.94369 7.79893 5.1922 7.17526C5.40596 6.63122 5.7084 6.12636 6.08721 5.6812C6.42785 5.2838 6.84719 4.96137 7.31875 4.73425C7.78542 4.51247 8.29613 4.39889 8.81281 4.40199C9.11291 4.39844 9.41264 4.42394 9.70783 4.47812C9.94561 4.52448 10.1782 4.5943 10.4022 4.68658C10.6025 4.771 10.7951 4.87264 10.9778 4.99037C11.1535 5.10349 11.3335 5.22088 11.5057 5.3397L11.071 10.3405C11.0406 10.5349 11.0449 10.7332 11.0838 10.9261C11.1123 11.0595 11.1736 11.1838 11.2624 11.2875C11.3398 11.3757 11.44 11.4409 11.5519 11.476C11.7248 11.5312 11.9088 11.5417 12.0868 11.5066C12.2648 11.4715 12.431 11.392 12.57 11.2754C12.7976 11.0838 12.9833 10.8474 13.1157 10.581C13.2808 10.2496 13.4041 9.89906 13.4828 9.5373C13.576 9.10984 13.6298 8.67475 13.6436 8.23747C13.6974 7.422 13.6305 6.60306 13.4451 5.80712C13.2859 5.12289 12.9792 4.48165 12.5465 3.92816C12.1162 3.39947 11.5629 2.98421 10.9351 2.71868C10.1901 2.41654 9.3909 2.27122 8.58728 2.29181C7.7829 2.27606 6.98591 2.44779 6.25939 2.79339C5.57789 3.12982 4.97628 3.6082 4.49497 4.19638C3.98721 4.82514 3.5968 5.54018 3.34241 6.30728C3.05713 7.15745 2.89354 8.04369 2.85648 8.93968C2.80012 9.84144 2.88388 10.7465 3.10478 11.6226C3.28313 12.3284 3.61822 12.985 4.08517 13.5435C4.53393 14.0601 5.10511 14.4559 5.74643 14.6947C6.48038 14.9616 7.25716 15.0914 8.03803 15.0774C8.5434 15.0721 9.04708 15.018 9.54206 14.9159C9.79035 14.8661 10.0251 14.8071 10.2492 14.7416C10.4565 14.6812 10.6599 14.6083 10.8583 14.5232L11.1727 15.9383C10.9585 16.0752 10.7299 16.1883 10.4911 16.2755C10.2279 16.3704 9.95893 16.4483 9.68577 16.5089C9.13333 16.6321 8.56919 16.6953 8.00317 16.6974C6.95937 16.7154 5.92065 16.548 4.93536 16.203C4.08414 15.8993 3.31826 15.3957 2.7021 14.7345C2.0762 14.0374 1.6171 13.2071 1.35957 12.3063C1.05027 11.2111 0.923594 10.0725 0.984635 8.93612C1.02334 7.83047 1.24028 6.73833 1.62708 5.70183C1.97828 4.75489 2.5055 3.88295 3.18091 3.13204C3.84394 2.40903 4.64999 1.83169 5.54793 1.43664C6.51671 1.01511 7.56433 0.805297 8.62072 0.821225C9.63762 0.801886 10.6484 0.982957 11.5953 1.35411C12.4161 1.68291 13.1507 2.19548 13.7425 2.85244C14.33 3.52266 14.7648 4.31259 15.0167 5.16752C15.3007 6.13454 15.4174 7.14294 15.3618 8.14925ZM6.84065 9.12181C6.75645 9.6856 6.81642 10.2615 7.01496 10.7959C7.0831 10.9675 7.20255 11.1139 7.35701 11.2152C7.51146 11.3164 7.69338 11.3675 7.87795 11.3615C7.97889 11.359 8.07879 11.3405 8.17392 11.3067C8.29918 11.2608 8.41458 11.1915 8.514 11.1025C8.64919 10.9815 8.7655 10.841 8.85906 10.6856C8.99287 10.4645 9.09941 10.228 9.17637 9.98125L9.51573 6.09598C9.34366 6.04915 9.16616 6.02523 8.98783 6.02483C8.68254 6.01807 8.38042 6.08804 8.10918 6.22831C7.85576 6.37032 7.64197 6.57359 7.48736 6.81953C7.30102 7.12077 7.16186 7.44876 7.07472 7.79209C6.96049 8.22819 6.8822 8.67292 6.84065 9.12181Z" fill="white"/>
</svg>
