<svg width="16" height="17" viewBox="0 0 16 17" fill="none" xmlns="http://www.w3.org/2000/svg">
<path d="M7.9058 4.71266C7.10528 4.71266 6.32274 4.95004 5.65713 5.39479C4.99153 5.83953 4.47275 6.47166 4.16641 7.21124C3.86006 7.95082 3.77991 8.76464 3.93608 9.54977C4.09225 10.3349 4.47774 11.0561 5.04379 11.6222C5.60984 12.1882 6.33103 12.5737 7.11617 12.7299C7.90131 12.886 8.71512 12.8059 9.4547 12.4995C10.1943 12.1932 10.8264 11.6744 11.2712 11.0088C11.7159 10.3432 11.9533 9.56067 11.9533 8.76015C11.9541 8.22839 11.85 7.70169 11.6469 7.21024C11.4438 6.7188 11.1457 6.27227 10.7697 5.89626C10.3937 5.52025 9.94714 5.22215 9.4557 5.01904C8.96425 4.81593 8.43756 4.71182 7.9058 4.71266ZM7.9058 11.3918C7.38516 11.3918 6.87621 11.2374 6.44331 10.9482C6.01042 10.6589 5.67302 10.2478 5.47378 9.76681C5.27454 9.2858 5.22241 8.75652 5.32398 8.24588C5.42555 7.73525 5.67626 7.2662 6.04441 6.89805C6.41256 6.5299 6.88161 6.27919 7.39224 6.17762C7.90287 6.07605 8.43216 6.12818 8.91317 6.32742C9.39418 6.52666 9.8053 6.86406 10.0946 7.29696C10.3838 7.72985 10.5382 8.2388 10.5382 8.75944C10.5371 9.45724 10.2594 10.1261 9.76593 10.6196C9.27251 11.113 8.6036 11.3907 7.9058 11.3918ZM13.0632 4.54689C13.0632 4.73362 13.0078 4.91615 12.904 5.07141C12.8003 5.22667 12.6529 5.34767 12.4803 5.41913C12.3078 5.49059 12.118 5.50928 11.9349 5.47286C11.7517 5.43643 11.5835 5.34651 11.4515 5.21448C11.3194 5.08244 11.2295 4.91422 11.1931 4.73108C11.1567 4.54794 11.1754 4.35811 11.2468 4.1856C11.3183 4.01309 11.4393 3.86564 11.5945 3.7619C11.7498 3.65816 11.9323 3.60279 12.1191 3.60279C12.2431 3.60251 12.366 3.62673 12.4807 3.67408C12.5953 3.72143 12.6995 3.79096 12.7873 3.87868C12.875 3.96641 12.9445 4.07059 12.9919 4.18527C13.0392 4.29994 13.0634 4.42283 13.0632 4.54689ZM15.7439 5.50523C15.7701 4.27779 15.3121 3.08936 14.469 2.19694C13.5748 1.35663 12.3876 0.899103 11.1607 0.922012C9.85733 0.850866 5.95071 0.850866 4.6466 0.922012C3.42065 0.896996 2.23354 1.35253 1.33903 2.19125C0.496825 3.08512 0.0390327 4.27379 0.0641016 5.50167C-0.00704427 6.80506 -0.00704427 10.7117 0.0641016 12.0158C0.0379082 13.2432 0.495899 14.4316 1.33903 15.3241C2.2336 16.1638 3.42058 16.6212 4.64732 16.599C5.95071 16.6701 9.85732 16.6701 11.1614 16.599C12.3889 16.6252 13.5773 16.1672 14.4697 15.3241C15.31 14.4299 15.7676 13.2426 15.7446 12.0158C15.8158 10.7124 15.8158 6.80933 15.7446 5.50523H15.7439ZM14.0599 13.4138C13.9259 13.7533 13.7236 14.0617 13.4655 14.3198C13.2074 14.578 12.899 14.7803 12.5594 14.9143C11.52 15.3262 9.05409 15.2316 7.9058 15.2316C6.7575 15.2316 4.28803 15.3234 3.25215 14.9143C2.9126 14.7803 2.60421 14.578 2.3461 14.3198C2.08799 14.0617 1.88566 13.7533 1.75168 13.4138C1.33903 12.3744 1.43508 9.90844 1.43508 8.76015C1.43508 7.61185 1.3433 5.14238 1.75239 4.1065C1.88629 3.76702 2.08851 3.45867 2.34649 3.20056C2.60448 2.94246 2.91273 2.7401 3.25215 2.60603C4.29159 2.1941 6.7575 2.28872 7.9058 2.28872C9.05409 2.28872 11.5236 2.19695 12.5594 2.60603C12.899 2.74002 13.2074 2.94234 13.4655 3.20045C13.7236 3.45856 13.9259 3.76695 14.0599 4.1065C14.4718 5.14594 14.3772 7.61185 14.3772 8.76015C14.3772 9.90844 14.4726 12.3779 14.0599 13.4138Z" fill="white"/>
</svg>
