<svg width="16" height="16" viewBox="0 0 16 16" fill="none" xmlns="http://www.w3.org/2000/svg">
<path d="M14.3125 0.174316H1.30559C1.01751 0.176573 0.742075 0.292936 0.539637 0.497908C0.337199 0.70288 0.224271 0.979743 0.225597 1.26783V14.2519C0.224271 14.54 0.337199 14.8169 0.539637 15.0219C0.742075 15.2268 1.01751 15.3432 1.30559 15.3455H14.3125C14.6009 15.3434 14.8768 15.2272 15.0799 15.0223C15.2829 14.8174 15.3966 14.5404 15.396 14.2519V1.26783C15.3966 0.979358 15.2829 0.702394 15.0799 0.497484C14.8768 0.292574 14.6009 0.176384 14.3125 0.174316ZM4.81095 13.1784H2.56203V5.93784H4.8145V13.1784H4.81095ZM3.68684 4.94891C3.42895 4.94863 3.17692 4.87189 2.96264 4.72839C2.74835 4.58489 2.58142 4.38108 2.48296 4.14272C2.38449 3.90436 2.35891 3.64216 2.40945 3.38926C2.45998 3.13636 2.58437 2.90413 2.76688 2.72192C2.94939 2.53971 3.18183 2.4157 3.43481 2.36558C3.68779 2.31545 3.94995 2.34146 4.18814 2.44032C4.42634 2.53917 4.62988 2.70643 4.77303 2.92096C4.91618 3.13548 4.99251 3.38762 4.99237 3.64552C4.99227 3.81684 4.95843 3.98646 4.89276 4.14469C4.82709 4.30292 4.73089 4.44666 4.60965 4.56771C4.48841 4.68875 4.34451 4.78471 4.18617 4.85012C4.02783 4.91553 3.85816 4.9491 3.68684 4.94891ZM13.2396 13.1784H10.9914V9.65663C10.9914 8.81711 10.9743 7.7357 9.82317 7.7357C8.6514 7.7357 8.4714 8.64992 8.4714 9.59474V13.1776H6.22319V5.93784H8.38033V6.92677H8.40737C8.62428 6.55732 8.93734 6.25362 9.3132 6.04803C9.68906 5.84243 10.1136 5.74263 10.5417 5.75926C12.8184 5.75926 13.241 7.25973 13.241 9.20984L13.2396 13.1784Z" fill="white"/>
</svg>
