<svg width="43" height="42" viewBox="0 0 43 42" fill="none" xmlns="http://www.w3.org/2000/svg">
<path d="M20.9717 2.22902V1" stroke="white" stroke-width="2" stroke-linecap="round"/>
<path d="M40.6357 20.6641H41.8648" stroke="white" stroke-width="2" stroke-linecap="round"/>
<path d="M1 20.834H2.53628" stroke="white" stroke-width="2" stroke-linecap="round"/>
<path d="M8.20491 9.48582L6.26367 7.52246" stroke="white" stroke-width="2" stroke-linecap="round"/>
<path d="M33.6338 9.48582L35.575 7.52246" stroke="white" stroke-width="2" stroke-linecap="round"/>
<path d="M8.20491 31.208L6.26367 33.1714" stroke="white" stroke-width="2" stroke-linecap="round"/>
<path d="M33.6338 31.208L35.575 33.1714" stroke="white" stroke-width="2" stroke-linecap="round"/>
<path d="M21.0885 40.3204C17.2293 40.8299 16.1232 36.119 21.6852 35.9918C27.2471 35.8646 25.6082 28.8579 25.6082 28.8579L25.6795 28.8143C25.618 28.8517 30.5138 25.9876 30.657 21.0985C30.8002 16.2095 27.3424 11.1545 21.0897 11.305C14.8371 11.4556 11.5224 16.0509 11.5979 21.0985C11.6594 25.1543 15.1689 27.9097 16.57 28.8579C16.715 28.9581 16.57 30.5909 16.57 30.5909" stroke="white" stroke-width="2" stroke-linecap="round" stroke-linejoin="round"/>
</svg>
