<svg width="39" height="39" viewBox="0 0 39 39" fill="none" xmlns="http://www.w3.org/2000/svg">
<path d="M30.3818 15.1089L33.8078 11.6836L37.233 15.1089" stroke="white" stroke-width="2" stroke-linecap="round" stroke-linejoin="round"/>
<path d="M30.3828 7.23484L33.8088 3.80957L37.234 7.23484" stroke="white" stroke-width="2" stroke-linecap="round" stroke-linejoin="round"/>
<path d="M17.2065 15.6699C21.1095 15.6699 24.2734 12.5059 24.2734 8.60301C24.2734 4.70008 21.1095 1.53613 17.2065 1.53613C13.3036 1.53613 10.1396 4.70008 10.1396 8.60301C10.1396 12.5059 13.3036 15.6699 17.2065 15.6699Z" stroke="white" stroke-width="2"/>
<path d="M27.6529 21.8154H6.75948C3.8747 21.8154 1.53613 24.154 1.53613 27.0388V31.9549C1.53613 34.8396 3.8747 37.1782 6.75948 37.1782H27.6529C30.5376 37.1782 32.8762 34.8396 32.8762 31.9549V27.0388C32.8762 24.154 30.5376 21.8154 27.6529 21.8154Z" stroke="white" stroke-width="2"/>
</svg>
