<svg width="34" height="38" viewBox="0 0 34 38" fill="none" xmlns="http://www.w3.org/2000/svg">
<path d="M27.3455 23.0436C29.7212 23.0436 31.6471 21.1177 31.6471 18.742C31.6471 16.3663 29.7212 14.4404 27.3455 14.4404C24.9698 14.4404 23.0439 16.3663 23.0439 18.742C23.0439 21.1177 24.9698 23.0436 27.3455 23.0436Z" stroke="white" stroke-width="2"/>
<path d="M5.83771 10.1393C8.21341 10.1393 10.1393 8.21341 10.1393 5.83771C10.1393 3.46201 8.21341 1.53613 5.83771 1.53613C3.46201 1.53613 1.53613 3.46201 1.53613 5.83771C1.53613 8.21341 3.46201 10.1393 5.83771 10.1393Z" stroke="white" stroke-width="2"/>
<path d="M13.826 35.9489C16.2017 35.9489 18.1276 34.023 18.1276 31.6473C18.1276 29.2716 16.2017 27.3457 13.826 27.3457C11.4503 27.3457 9.52441 29.2716 9.52441 31.6473C9.52441 34.023 11.4503 35.9489 13.826 35.9489Z" stroke="white" stroke-width="2"/>
<path d="M16.5918 19.0498H2.45801" stroke="white" stroke-width="2" stroke-linecap="round"/>
<path d="M16.5918 6.14453H30.7256" stroke="white" stroke-width="2" stroke-linecap="round"/>
<path d="M23.9658 31.9541H30.7254" stroke="white" stroke-width="2" stroke-linecap="round"/>
<path d="M2.45801 31.9541H3.68703" stroke="white" stroke-width="2" stroke-linecap="round"/>
</svg>
