<svg width="48" height="41" viewBox="0 0 48 41" fill="none" xmlns="http://www.w3.org/2000/svg">
<path d="M34.0375 15.7245H31.9482C31.327 13.3188 30.0435 11.1356 28.2436 9.42287C26.4436 7.71014 24.1994 6.53659 21.7658 6.03557C19.3323 5.53454 16.807 5.72612 14.4769 6.58853C12.1467 7.45095 10.1052 8.94963 8.58426 10.9143C7.0633 12.879 6.12388 15.2308 5.87273 17.7027C5.62158 20.1746 6.06877 22.6673 7.1635 24.8978C8.25823 27.1282 9.9566 29.0069 12.0657 30.3203C14.1747 31.6338 16.6099 32.3293 19.0945 32.328H34.0375C35.1337 32.3374 36.221 32.1297 37.2364 31.7167C38.2519 31.3037 39.1756 30.6937 39.9541 29.9219C40.7326 29.1501 41.3505 28.2317 41.7722 27.2198C42.1939 26.2079 42.411 25.1225 42.411 24.0263C42.411 22.93 42.1939 21.8446 41.7722 20.8327C41.3505 19.8208 40.7326 18.9025 39.9541 18.1306C39.1756 17.3588 38.2519 16.7488 37.2364 16.3358C36.221 15.9229 35.1337 15.7151 34.0375 15.7245Z" stroke="white" stroke-width="2" stroke-linecap="round" stroke-linejoin="round"/>
<path d="M24.8516 1V2.84353" stroke="white" stroke-width="2" stroke-linecap="round"/>
<path d="M30.3818 4.07227V11.4464" stroke="white" stroke-width="2" stroke-linecap="round"/>
<path d="M19.3203 2.84375V5.30179" stroke="white" stroke-width="2" stroke-linecap="round"/>
<path d="M30.3818 36.0273V37.8709" stroke="white" stroke-width="2" stroke-linecap="round"/>
<path d="M19.3203 32.3398V37.2559" stroke="white" stroke-width="2" stroke-linecap="round"/>
<path d="M24.8516 32.3398V39.0995" stroke="white" stroke-width="2" stroke-linecap="round"/>
<path d="M5.1375 17.2852H1" stroke="white" stroke-width="2" stroke-linecap="round"/>
<path d="M42.0576 21.2793H45.7447" stroke="white" stroke-width="2" stroke-linecap="round"/>
<path d="M46.3594 25.5801H46.9739" stroke="white" stroke-width="2" stroke-linecap="round"/>
</svg>
