<svg width="15" height="15" viewBox="0 0 15 15" fill="none" xmlns="http://www.w3.org/2000/svg">
<path d="M14.3113 1.32852L11.4207 0.66117C11.2683 0.626598 11.1086 0.646265 10.9691 0.716782C10.8296 0.787299 10.7191 0.904251 10.6566 1.04749L9.32258 4.16012C9.26561 4.2931 9.25354 4.44102 9.28821 4.58148C9.32287 4.72193 9.40238 4.84726 9.51467 4.93846L11.1994 6.31655C10.1795 8.48017 8.43831 10.2213 6.27469 11.2413L4.89517 9.55725C4.80383 9.44514 4.6785 9.36578 4.53811 9.33113C4.39771 9.29648 4.24985 9.30842 4.11684 9.36515L1.00421 10.6998C0.860306 10.7625 0.742735 10.8734 0.671712 11.0133C0.600688 11.1533 0.580649 11.3137 0.615041 11.4668L1.28239 14.3575C1.31636 14.5044 1.39916 14.6355 1.51727 14.7293C1.63538 14.8232 1.78182 14.8741 1.93266 14.874C3.62613 14.8742 5.30306 14.5407 6.86766 13.8928C8.43226 13.2448 9.85388 12.2949 11.0513 11.0975C12.2488 9.90001 13.1987 8.47838 13.8466 6.91378C14.4946 5.34918 14.828 3.67226 14.8278 1.97879C14.8281 1.82792 14.7772 1.68142 14.6834 1.56328C14.5895 1.44514 14.4584 1.36237 14.3113 1.32852Z" fill="white"/>
</svg>
