<svg width="9" height="9" viewBox="0 0 9 9" fill="none" xmlns="http://www.w3.org/2000/svg">
<path d="M8.5 4.5C8.5 5.29112 8.2654 6.06448 7.82588 6.72228C7.38635 7.38008 6.76164 7.89277 6.03073 8.19552C5.29983 8.49827 4.49556 8.57748 3.71964 8.42314C2.94372 8.2688 2.23098 7.88784 1.67157 7.32843C1.11216 6.76902 0.731202 6.05628 0.576861 5.28036C0.42252 4.50444 0.501733 3.70017 0.804484 2.96927C1.10723 2.23836 1.61992 1.61365 2.27772 1.17412C2.93552 0.734596 3.70888 0.5 4.5 0.5C5.56087 0.5 6.57828 0.921427 7.32843 1.67157C8.07857 2.42172 8.5 3.43913 8.5 4.5Z" stroke="white" stroke-linecap="round" stroke-linejoin="round"/>
<mask id="mask0" mask-type="alpha" maskUnits="userSpaceOnUse" x="3" y="2" width="4" height="5">
<path d="M3.60059 2.7002L6.30088 4.49981L3.60059 6.30038V2.7002Z" fill="white"/>
</mask>
<g mask="url(#mask0)">
<path d="M3.60059 2.7002L4.70974 1.03593C4.09601 0.626912 3.30698 0.588858 2.65674 0.936919C2.0065 1.28498 1.60059 1.96266 1.60059 2.7002H3.60059ZM6.30088 4.49981L7.41044 6.1638C7.96682 5.79281 8.30096 5.16829 8.30088 4.49956C8.3008 3.83084 7.9665 3.2064 7.41003 2.83555L6.30088 4.49981ZM3.60059 6.30039H1.60059C1.60059 7.03801 2.00659 7.71576 2.65696 8.06378C3.30732 8.4118 4.09645 8.3736 4.71015 7.96438L3.60059 6.30039ZM2.49143 4.36446L5.19173 6.16408L7.41003 2.83555L4.70974 1.03593L2.49143 4.36446ZM5.19132 2.83582L2.49102 4.63639L4.71015 7.96438L7.41044 6.1638L5.19132 2.83582ZM5.60059 6.30039V2.7002H1.60059V6.30039H5.60059Z" fill="white"/>
</g>
</svg>
