<svg width="10" height="10" viewBox="0 0 10 10" fill="none" xmlns="http://www.w3.org/2000/svg">
<g clip-path="url(#clip0)">
<path d="M8.38856 4.44424C8.38856 5.22434 8.15723 5.98691 7.72383 6.63554C7.29042 7.28417 6.67441 7.78971 5.95369 8.08824C5.23297 8.38677 4.4399 8.46488 3.67479 8.31269C2.90967 8.1605 2.20687 7.78485 1.65525 7.23324C1.10364 6.68163 0.72798 5.97883 0.57579 5.21372C0.4236 4.44862 0.501709 3.65556 0.800242 2.93485C1.09877 2.21413 1.60432 1.59812 2.25295 1.16473C2.90159 0.731326 3.66417 0.5 4.44428 0.5C5.49037 0.5 6.49361 0.915554 7.23331 1.65524C7.973 2.39493 8.38856 3.39816 8.38856 4.44424Z" stroke="white" stroke-linecap="round" stroke-linejoin="round"/>
<path d="M9.99967 9.99971L7.58301 7.58301" stroke="white" stroke-linecap="round" stroke-linejoin="round"/>
</g>
<defs>
<clipPath id="clip0">
<rect width="10" height="10" fill="white"/>
</clipPath>
</defs>
</svg>
