<svg width="19" height="18" viewBox="0 0 19 18" fill="none" xmlns="http://www.w3.org/2000/svg">
<path d="M15.5417 2.54032C14.0506 1.05188 12.0696 0.155697 9.96722 0.0184678C7.86484 -0.118761 5.78417 0.512306 4.11223 1.79429C2.4403 3.07627 1.29091 4.9219 0.877867 6.98787C0.464822 9.05385 0.816236 11.1995 1.86675 13.0258L0.633789 17.53L5.24048 16.3206C6.51442 17.0149 7.94237 17.3782 9.39326 17.3771H9.39753C11.71 17.3768 13.9288 16.4635 15.5713 14.8357C17.2138 13.208 18.1472 10.9975 18.1684 8.68519C18.156 7.53862 17.9177 6.40573 17.4671 5.35133C17.0165 4.29694 16.3625 3.34172 15.5424 2.54032H15.5417ZM9.39682 15.9101C8.1025 15.9113 6.83171 15.564 5.71787 14.9048L5.45534 14.7482L2.72405 15.4668L3.45188 12.7988L3.2797 12.5249C2.7025 11.5736 2.35249 10.502 2.25689 9.39332C2.16129 8.28469 2.32267 7.16895 2.7285 6.13284C3.13433 5.09674 3.77365 4.1682 4.59677 3.41942C5.4199 2.67064 6.40463 2.12179 7.4744 1.81556C8.54418 1.50933 9.67018 1.45395 10.7648 1.65375C11.8595 1.85355 12.8933 2.30314 13.7859 2.96755C14.6786 3.63196 15.4059 4.49329 15.9114 5.48458C16.4169 6.47587 16.687 7.57039 16.7007 8.68306C16.6808 10.6069 15.9025 12.4452 14.5348 13.7985C13.1672 15.1517 11.3208 15.9105 9.39682 15.9101ZM13.3575 10.503C13.1441 10.3934 12.0769 9.86906 11.8741 9.79862C11.6714 9.72819 11.5298 9.68906 11.3846 9.90819C11.2395 10.1273 10.8247 10.6125 10.6959 10.7619C10.5672 10.9113 10.4412 10.9263 10.2264 10.8167C8.97561 10.3168 7.93315 9.40465 7.2717 8.23128C7.0483 7.8478 7.49509 7.87555 7.91201 7.04528C7.94025 6.98522 7.95322 6.9191 7.94974 6.85282C7.94627 6.78654 7.92646 6.72214 7.89209 6.66536C7.8373 6.55579 7.4026 5.48719 7.2226 5.05248C7.04616 4.62988 6.86688 4.68822 6.73312 4.68039C6.59937 4.67256 6.46277 4.67256 6.31834 4.67256C6.20845 4.67564 6.10037 4.70122 6.00076 4.74772C5.90115 4.79422 5.81213 4.86066 5.73921 4.94292C5.49398 5.17584 5.29986 5.45721 5.16917 5.76917C5.03849 6.08112 4.9741 6.41684 4.98009 6.755C5.05108 7.57374 5.35775 8.35437 5.86301 9.0025C6.79521 10.3983 8.07361 11.5284 9.57326 12.2823C10.9506 12.8771 11.4942 12.9283 12.18 12.8266C12.4823 12.7653 12.7684 12.6418 13.0204 12.4639C13.2723 12.2861 13.4845 12.0578 13.6435 11.7936C13.7852 11.4688 13.8287 11.1097 13.7687 10.7605C13.7182 10.6616 13.5731 10.6068 13.3575 10.5015V10.503Z" fill="white"/>
</svg>
